<?xml version="1.0" encoding="UTF-8"?>
<svg xmlns="http://www.w3.org/2000/svg" xmlns:xlink="http://www.w3.org/1999/xlink" width="30px" height="30px" viewBox="0 0 30 30" version="1.1">
<g id="surface1">
<path style=" stroke:none;fill-rule:evenodd;fill:rgb(96.862745%,97.647059%,97.647059%);fill-opacity:1;" d="M 0.0078125 2.050781 L 0.0117188 4.105469 L 0.53125 2.972656 C 1.140625 1.648438 1.769531 1.035156 3.121094 0.449219 L 4.105469 0.0234375 L 2.050781 0.0117188 L 0 0 L 0.0078125 2.050781 M 27.027344 0.53125 C 28.351562 1.140625 28.964844 1.769531 29.550781 3.121094 L 29.976562 4.105469 L 29.988281 2.050781 L 30 0 L 27.949219 0.0078125 L 25.894531 0.0117188 L 27.027344 0.53125 M 5.945312 6.792969 L 5.945312 11.886719 L 8.472656 11.886719 L 8.550781 8.417969 L 8.632812 4.953125 L 9.496094 8.347656 L 10.359375 11.746094 L 11.625 11.828125 L 12.894531 11.914062 L 14.660156 4.953125 L 14.671875 11.746094 C 14.675781 15.761719 14.582031 18.292969 14.441406 17.941406 C 14.308594 17.613281 13.851562 17.070312 13.429688 16.738281 C 12.742188 16.195312 12.304688 16.132812 9.300781 16.132812 L 5.945312 16.132812 L 5.945312 26.320312 L 9.339844 26.320312 L 9.339844 22.925781 L 10.824219 22.921875 C 12.726562 22.921875 13.976562 22.195312 14.425781 20.824219 C 14.753906 19.828125 14.785156 19.8125 16.296875 19.8125 L 17.832031 19.8125 L 17.832031 17.832031 C 17.832031 15 18.507812 15.136719 20.265625 18.324219 L 21.085938 19.8125 L 22.855469 19.8125 C 23.828125 19.8125 24.621094 19.714844 24.621094 19.597656 C 24.621094 19.210938 22.59375 16.019531 22.117188 15.65625 C 21.800781 15.414062 21.769531 15.296875 22.015625 15.292969 C 22.21875 15.285156 22.695312 14.96875 23.078125 14.589844 C 24.089844 13.578125 24.070312 11.414062 23.042969 10.449219 C 22.40625 9.851562 21.996094 9.75 19.789062 9.664062 L 17.265625 9.566406 L 17.265625 1.699219 L 13.121094 1.699219 L 12.453125 4.53125 C 12.082031 6.09375 11.695312 7.269531 11.589844 7.152344 C 11.480469 7.03125 11.109375 5.753906 10.761719 4.316406 L 10.125 1.699219 L 5.945312 1.699219 L 5.945312 6.792969 M 17.832031 12.734375 C 17.832031 13.472656 17.929688 13.585938 18.609375 13.582031 C 19.910156 13.574219 20.660156 13.265625 20.660156 12.734375 C 20.660156 12.136719 20.113281 11.886719 18.796875 11.886719 C 17.910156 11.886719 17.832031 11.957031 17.832031 12.734375 M 9.339844 19.527344 C 9.339844 20.539062 9.414062 20.660156 10.027344 20.660156 C 10.785156 20.660156 11.605469 19.992188 11.605469 19.375 C 11.605469 18.902344 10.734375 18.394531 9.925781 18.394531 C 9.429688 18.394531 9.339844 18.574219 9.339844 19.527344 M 16.699219 23.066406 C 16.699219 23.332031 16.964844 23.492188 17.40625 23.492188 C 17.847656 23.492188 18.113281 23.332031 18.113281 23.066406 C 18.113281 22.800781 17.847656 22.640625 17.40625 22.640625 C 16.964844 22.640625 16.699219 22.800781 16.699219 23.066406 M 27.664062 23.257812 C 26.890625 23.976562 26.648438 24.621094 27.152344 24.621094 C 27.300781 24.621094 27.460938 25.164062 27.507812 25.824219 C 27.589844 26.953125 27.652344 27.035156 28.515625 27.117188 C 29.199219 27.183594 29.433594 27.09375 29.433594 26.761719 C 29.433594 26.519531 29.242188 26.320312 29.007812 26.320312 C 28.726562 26.320312 28.585938 26.039062 28.585938 25.472656 C 28.585938 24.90625 28.726562 24.621094 29.007812 24.621094 C 29.242188 24.621094 29.433594 24.429688 29.433594 24.199219 C 29.433594 23.964844 29.25 23.773438 29.027344 23.773438 C 28.804688 23.773438 28.582031 23.496094 28.535156 23.152344 C 28.445312 22.535156 28.441406 22.535156 27.664062 23.257812 M 9.90625 25.496094 C 9.90625 27.09375 9.9375 27.167969 10.613281 27.167969 C 11.25 27.167969 11.320312 27.054688 11.320312 26.046875 C 11.320312 25.214844 11.464844 24.847656 11.886719 24.621094 C 12.808594 24.128906 12.539062 23.820312 11.179688 23.820312 L 9.90625 23.820312 L 9.90625 25.496094 M 13.019531 24.339844 C 12.707031 24.652344 12.453125 25.160156 12.453125 25.472656 C 12.453125 27.078125 14.796875 27.734375 15.832031 26.417969 C 17.226562 24.644531 14.628906 22.726562 13.019531 24.339844 M 16.699219 25.613281 C 16.699219 26.652344 16.574219 27.453125 16.414062 27.453125 C 16.257812 27.453125 16.132812 27.644531 16.132812 27.878906 C 16.132812 28.390625 17.285156 28.449219 17.773438 27.960938 C 17.972656 27.765625 18.113281 26.816406 18.113281 25.699219 C 18.113281 23.832031 18.089844 23.773438 17.40625 23.773438 C 16.722656 23.773438 16.699219 23.839844 16.699219 25.613281 M 19.148438 24.292969 C 18.527344 24.976562 18.550781 26.117188 19.195312 26.703125 C 19.929688 27.367188 21.308594 27.296875 21.960938 26.5625 L 22.5 25.953125 L 21.445312 26.117188 C 20.863281 26.207031 20.3125 26.164062 20.222656 26.019531 C 20.132812 25.871094 20.570312 25.753906 21.210938 25.753906 C 22.15625 25.753906 22.359375 25.660156 22.359375 25.207031 C 22.359375 23.875 20.109375 23.230469 19.148438 24.292969 M 23.371094 24.21875 C 22.796875 24.789062 22.796875 26.152344 23.371094 26.726562 C 23.613281 26.96875 24.242188 27.167969 24.765625 27.167969 C 25.734375 27.167969 26.738281 26.484375 26.449219 26.015625 C 26.230469 25.664062 25.1875 25.683594 25.1875 26.039062 C 25.1875 26.484375 24.417969 26.367188 24.238281 25.894531 C 23.894531 25 24.339844 24.617188 25.5 24.800781 C 26.109375 24.898438 26.605469 24.90625 26.605469 24.820312 C 26.605469 24.347656 25.589844 23.773438 24.765625 23.773438 C 24.242188 23.773438 23.613281 23.972656 23.371094 24.21875 M 13.980469 25.023438 C 13.746094 25.632812 14.070312 26.394531 14.503906 26.25 C 14.699219 26.183594 14.859375 25.835938 14.859375 25.472656 C 14.859375 24.695312 14.226562 24.375 13.980469 25.023438 M 20.09375 24.90625 C 20.09375 25.0625 20.355469 25.1875 20.675781 25.1875 C 20.996094 25.1875 21.179688 25.0625 21.085938 24.90625 C 20.988281 24.75 20.726562 24.621094 20.503906 24.621094 C 20.277344 24.621094 20.09375 24.75 20.09375 24.90625 M 0.0078125 27.949219 L 0 30 L 2.050781 29.988281 L 4.105469 29.976562 L 3.121094 29.550781 C 1.769531 28.964844 1.140625 28.351562 0.53125 27.027344 L 0.0117188 25.894531 L 0.0078125 27.949219 M 29.71875 26.507812 C 29.71875 27.308594 28.28125 28.90625 27.0625 29.457031 L 25.894531 29.988281 L 27.949219 29.992188 L 30 30 L 30 28.019531 C 30 26.929688 29.9375 26.039062 29.859375 26.039062 C 29.78125 26.039062 29.71875 26.25 29.71875 26.507812 "/>
<path style=" stroke:none;fill-rule:evenodd;fill:rgb(14.117647%,69.019608%,65.882353%);fill-opacity:1;" d="M 2.972656 0.53125 C 1.625 1.152344 1.023438 1.78125 0.433594 3.183594 C 0.0703125 4.0625 0 5.941406 0.0078125 15.0625 C 0.0117188 24.96875 0.0585938 25.992188 0.53125 27.027344 C 1.152344 28.375 1.78125 28.976562 3.183594 29.566406 C 4.0625 29.929688 5.941406 30 15.0625 29.992188 C 25.03125 29.988281 25.988281 29.945312 27.0625 29.457031 C 28.269531 28.910156 29.71875 27.308594 29.71875 26.523438 C 29.71875 26.273438 29.84375 25.992188 30 25.894531 C 30.179688 25.785156 30.28125 21.738281 30.28125 14.683594 C 30.28125 8.277344 30.175781 3.710938 30.03125 3.800781 C 29.890625 3.886719 29.703125 3.660156 29.613281 3.300781 C 29.34375 2.238281 28.292969 1.101562 27.050781 0.535156 C 25.992188 0.0546875 25.003906 0.0117188 15 0.0117188 C 5.027344 0.0117188 4.007812 0.0546875 2.972656 0.53125 M 5.945312 6.792969 L 5.945312 11.886719 L 8.472656 11.886719 L 8.550781 8.417969 L 8.632812 4.953125 L 9.496094 8.347656 L 10.359375 11.746094 L 11.625 11.828125 L 12.894531 11.914062 L 14.660156 4.953125 L 14.671875 11.746094 C 14.675781 15.761719 14.582031 18.292969 14.441406 17.941406 C 14.308594 17.613281 13.851562 17.070312 13.429688 16.738281 C 12.742188 16.195312 12.304688 16.132812 9.300781 16.132812 L 5.945312 16.132812 L 5.945312 26.320312 L 9.339844 26.320312 L 9.339844 22.925781 L 10.824219 22.921875 C 12.726562 22.921875 13.976562 22.195312 14.425781 20.824219 C 14.753906 19.828125 14.785156 19.8125 16.296875 19.8125 L 17.832031 19.8125 L 17.832031 17.832031 C 17.832031 15 18.507812 15.136719 20.265625 18.324219 L 21.085938 19.8125 L 22.855469 19.8125 C 23.828125 19.8125 24.621094 19.714844 24.621094 19.597656 C 24.621094 19.210938 22.59375 16.019531 22.117188 15.65625 C 21.800781 15.414062 21.769531 15.296875 22.015625 15.292969 C 22.21875 15.285156 22.695312 14.96875 23.078125 14.589844 C 24.089844 13.578125 24.070312 11.414062 23.042969 10.449219 C 22.40625 9.851562 21.996094 9.75 19.789062 9.664062 L 17.265625 9.566406 L 17.265625 1.699219 L 13.121094 1.699219 L 12.453125 4.53125 C 12.082031 6.09375 11.695312 7.269531 11.589844 7.152344 C 11.480469 7.03125 11.109375 5.753906 10.761719 4.316406 L 10.125 1.699219 L 5.945312 1.699219 L 5.945312 6.792969 M 0.128906 15 C 0.128906 21.148438 0.167969 23.664062 0.210938 20.589844 C 0.257812 17.515625 0.257812 12.484375 0.210938 9.410156 C 0.167969 6.335938 0.128906 8.851562 0.128906 15 M 17.832031 12.734375 C 17.832031 13.472656 17.929688 13.585938 18.609375 13.582031 C 19.910156 13.574219 20.660156 13.265625 20.660156 12.734375 C 20.660156 12.136719 20.113281 11.886719 18.796875 11.886719 C 17.910156 11.886719 17.832031 11.957031 17.832031 12.734375 M 9.339844 19.527344 C 9.339844 20.539062 9.414062 20.660156 10.027344 20.660156 C 10.785156 20.660156 11.605469 19.992188 11.605469 19.375 C 11.605469 18.902344 10.734375 18.394531 9.925781 18.394531 C 9.429688 18.394531 9.339844 18.574219 9.339844 19.527344 M 16.699219 23.066406 C 16.699219 23.332031 16.964844 23.492188 17.40625 23.492188 C 17.847656 23.492188 18.113281 23.332031 18.113281 23.066406 C 18.113281 22.800781 17.847656 22.640625 17.40625 22.640625 C 16.964844 22.640625 16.699219 22.800781 16.699219 23.066406 M 27.664062 23.257812 C 26.890625 23.976562 26.648438 24.621094 27.152344 24.621094 C 27.300781 24.621094 27.460938 25.164062 27.507812 25.824219 C 27.589844 26.953125 27.652344 27.035156 28.515625 27.117188 C 29.199219 27.183594 29.433594 27.09375 29.433594 26.761719 C 29.433594 26.519531 29.242188 26.320312 29.007812 26.320312 C 28.726562 26.320312 28.585938 26.039062 28.585938 25.472656 C 28.585938 24.90625 28.726562 24.621094 29.007812 24.621094 C 29.242188 24.621094 29.433594 24.429688 29.433594 24.199219 C 29.433594 23.964844 29.25 23.773438 29.027344 23.773438 C 28.804688 23.773438 28.582031 23.496094 28.535156 23.152344 C 28.445312 22.535156 28.441406 22.535156 27.664062 23.257812 M 9.90625 25.496094 C 9.90625 27.09375 9.9375 27.167969 10.613281 27.167969 C 11.25 27.167969 11.320312 27.054688 11.320312 26.046875 C 11.320312 25.214844 11.464844 24.847656 11.886719 24.621094 C 12.808594 24.128906 12.539062 23.820312 11.179688 23.820312 L 9.90625 23.820312 L 9.90625 25.496094 M 13.019531 24.339844 C 12.707031 24.652344 12.453125 25.160156 12.453125 25.472656 C 12.453125 27.078125 14.796875 27.734375 15.832031 26.417969 C 17.226562 24.644531 14.628906 22.726562 13.019531 24.339844 M 16.699219 25.613281 C 16.699219 26.652344 16.574219 27.453125 16.414062 27.453125 C 16.257812 27.453125 16.132812 27.644531 16.132812 27.878906 C 16.132812 28.390625 17.285156 28.449219 17.773438 27.960938 C 17.972656 27.765625 18.113281 26.816406 18.113281 25.699219 C 18.113281 23.832031 18.089844 23.773438 17.40625 23.773438 C 16.722656 23.773438 16.699219 23.839844 16.699219 25.613281 M 19.148438 24.292969 C 18.527344 24.976562 18.550781 26.117188 19.195312 26.703125 C 19.929688 27.367188 21.308594 27.296875 21.960938 26.5625 L 22.5 25.953125 L 21.445312 26.117188 C 20.863281 26.207031 20.3125 26.164062 20.222656 26.019531 C 20.132812 25.871094 20.570312 25.753906 21.210938 25.753906 C 22.15625 25.753906 22.359375 25.660156 22.359375 25.207031 C 22.359375 23.875 20.109375 23.230469 19.148438 24.292969 M 23.371094 24.21875 C 22.796875 24.789062 22.796875 26.152344 23.371094 26.726562 C 23.613281 26.96875 24.242188 27.167969 24.765625 27.167969 C 25.734375 27.167969 26.738281 26.484375 26.449219 26.015625 C 26.230469 25.664062 25.1875 25.683594 25.1875 26.039062 C 25.1875 26.484375 24.417969 26.367188 24.238281 25.894531 C 23.894531 25 24.339844 24.617188 25.5 24.800781 C 26.109375 24.898438 26.605469 24.90625 26.605469 24.820312 C 26.605469 24.347656 25.589844 23.773438 24.765625 23.773438 C 24.242188 23.773438 23.613281 23.972656 23.371094 24.21875 M 13.980469 25.023438 C 13.746094 25.632812 14.070312 26.394531 14.503906 26.25 C 14.699219 26.183594 14.859375 25.835938 14.859375 25.472656 C 14.859375 24.695312 14.226562 24.375 13.980469 25.023438 M 20.09375 24.90625 C 20.09375 25.0625 20.355469 25.1875 20.675781 25.1875 C 20.996094 25.1875 21.179688 25.0625 21.085938 24.90625 C 20.988281 24.75 20.726562 24.621094 20.503906 24.621094 C 20.277344 24.621094 20.09375 24.75 20.09375 24.90625 "/>
</g>
</svg>
