<!DOCTYPE svg PUBLIC "-//W3C//DTD SVG 20010904//EN" "http://www.w3.org/TR/2001/REC-SVG-20010904/DTD/svg10.dtd"[]><svg version="1.0" xmlns="http://www.w3.org/2000/svg" width="30" height="30" viewBox="0 0 106.000000 106.000000" preserveAspectRatio="xMidYMid meet"><g transform="translate(0.000000,106.000000) scale(0.100000,-0.100000)" fill="#000000" stroke="none"><path d="M105 1041 c-48 -22 -69 -44 -90 -94 -13 -31 -15 -97 -15 -419 0 -350 2 -386 19 -423 22 -48 44 -69 94 -90 31 -13 97 -15 419 -15 432 0 438 1 494 76 l29 37 3 391 c2 256 0 403 -7 427 -15 51 -48 88 -95 110 -38 17 -73 19 -426 19 -352 0 -388 -2 -425 -19z m275 -128 c13 -49 26 -94 30 -101 3 -7 17 32 30 88 l24 100 73 0 73 0 0 -140 0 -140 84 0 c76 0 87 -3 115 -26 27 -22 31 -32 31 -75 0 -40 -5 -55 -25 -74 -13 -14 -30 -25 -37 -25 -9 -1 -8 -5 4 -13 16 -13 88 -126 88 -139 0 -5 -28 -8 -62 -8 l-63 0 -29 53 c-62 112 -86 117 -86 17 l0 -70 -53 0 c-52 0 -53 -1 -66 -36 -17 -48 -62 -74 -128 -74 l-53 0 0 -60 0 -60 -60 0 -60 0 0 180 0 180 119 0 c106 0 121 -2 145 -21 15 -12 32 -31 36 -43 5 -12 9 74 9 214 0 256 -2 258 -46 72 l-17 -73 -45 3 -45 3 -31 120 -30 120 -3 -122 -3 -123 -44 0 -45 0 0 180 0 180 74 0 73 0 23 -87z m260 -668 c0 -9 -9 -15 -25 -15 -16 0 -25 6 -25 15 0 9 9 15 25 15 16 0 25 -6 25 -15z m386 -25 c8 0 14 -7 14 -15 0 -8 -7 -15 -15 -15 -9 0 -15 -9 -15 -25 0 -14 7 -28 15 -31 8 -4 15 -13 15 -21 0 -10 -9 -13 -32 -11 -31 3 -33 6 -36 46 -2 23 -7 42 -13 42 -17 0 -9 23 19 48 27 26 27 26 30 4 2 -12 10 -22 18 -22z m-586 -10 c0 -5 -9 -14 -20 -20 -15 -8 -20 -21 -20 -50 0 -36 -3 -40 -25 -40 -24 0 -25 3 -25 59 l0 59 45 0 c25 0 45 -4 45 -8z m115 -4 c11 -8 18 -26 18 -46 0 -38 -23 -60 -65 -60 -33 0 -68 31 -68 60 0 48 72 77 115 46z m83 -63 l-3 -78 -32 -3 c-25 -2 -33 1 -33 12 0 9 5 16 10 16 6 0 10 28 10 65 0 63 1 65 25 65 26 0 26 0 23 -77z m136 61 c9 -8 16 -24 16 -35 0 -16 -7 -19 -41 -19 -22 0 -38 -4 -34 -9 3 -5 21 -7 40 -4 39 6 43 2 19 -21 -20 -21 -73 -20 -96 1 -22 20 -23 61 -1 85 20 22 76 24 97 2z m150 0 c24 -23 20 -27 -23 -20 -41 6 -57 -7 -45 -39 7 -17 34 -21 34 -5 0 14 37 13 46 -2 20 -31 -80 -52 -110 -22 -20 20 -20 68 0 88 20 21 78 21 98 0z" /><path d="M630 610 c0 -26 4 -30 28 -30 46 0 72 11 72 30 0 21 -19 30 -66 30 -31 0 -34 -3 -34 -30z" /><path d="M330 370 c0 -36 3 -40 24 -40 24 0 56 23 56 40 0 17 -32 40 -56 40 -21 0 -24 -4 -24 -40z" /><path d="M494 176 c-8 -22 3 -49 19 -43 6 2 12 14 12 27 0 27 -22 39 -31 16z" /><path d="M715 180 c-3 -5 1 -10 9 -10 9 0 16 5 16 10 0 6 -4 10 -9 10 -6 0 -13 -4 -16 -10z" /></g></svg>